<svg width="825" height="120" viewBox="0 0 825 120" fill="none" xmlns="http://www.w3.org/2000/svg">
<path d="M23.328 45.468V69.372H47.328V45.468H64.032V109.5H47.328V83.58H23.328V109.5H6.72V45.468H23.328ZM77.5013 45.468H94.2053V85.788L118.205 45.468H135.197V109.5H118.493V69.18L94.4933 109.5H77.5013V45.468ZM180.242 109.5V81.372L162.962 109.5H142.034L165.362 76.86L143.954 45.468H163.154L180.242 73.308V45.468H196.754V73.308L213.842 45.468H233.042L211.634 76.86L234.962 109.5H214.034L196.754 81.372V109.5H180.242ZM278.135 45.468V59.58H258.359V70.236H277.079V84.348H258.359V95.388H278.135V109.5H241.751V45.468H278.135Z" fill="#3D40C0"/>
<path d="M824.175 45.0794V59.0724H764.175V69.6385H824.175V83.6315H764.175V94.5784H824.175V108.571H749.889V45.0794H824.175Z" fill="#3D40C0"/>
<path d="M739.644 45.0476V59.0476H720.025V69.6191H738.596V83.6191H720.025V94.5715H739.644V108.571H703.548V45.0476H739.644Z" fill="#3D40C0"/>
<path d="M673.393 87.5238H663.012V108.571H646.536V45.0476H672.821C678.345 45.0476 684.06 46.0953 688.917 50.7619C693.869 55.5238 694.822 60.8572 694.822 66.1905C694.822 71.2381 694.155 77.1429 689.202 82C684.25 86.8572 678.345 87.5238 673.393 87.5238ZM663.012 58.381V74.1905H668.536C670.25 74.1905 673.488 74 675.488 72.1905C677.488 70.4762 677.583 67.9048 677.583 66.381C677.583 64.6667 677.393 62.381 675.679 60.6667C673.774 58.6667 670.726 58.381 668.631 58.381H663.012Z" fill="#3D40C0"/>
<path d="M639.231 59.0476H625.707V108.571H609.231V59.0476H595.707V45.0476H639.231V59.0476Z" fill="#3D40C0"/>
<path d="M588.825 87.3333V106.857C582.254 109.238 578.635 110 574.539 110C563.492 110 555.206 105.619 549.968 100.476C543.778 94.2857 540.349 85.6191 540.349 77.3333C540.349 68.2857 544.254 59.7143 549.968 53.9048C555.587 48.1905 564.063 44 573.968 44C577.016 44 582.063 44.4762 588.825 47.2381V66.9524C583.492 60.381 577.206 60 574.444 60C569.682 60 566.063 61.4286 563.016 64.1905C559.111 67.8095 557.492 72.7619 557.492 77.2381C557.492 81.6191 559.301 86.4762 562.635 89.6191C565.397 92.1905 569.778 94 574.444 94C576.92 94 583.016 93.7143 588.825 87.3333Z" fill="#3D40C0"/>
<path d="M513.31 108.571V45.0476H529.882V108.571H513.31ZM459.501 108.571V45.0476H476.072V69.8096H484.072C489.12 69.8096 497.406 70.1905 503.025 75.7143C507.406 80 508.072 85.4286 508.072 89.1429C508.072 93.4286 507.31 98.381 503.31 102.476C497.882 108 489.501 108.571 483.12 108.571H459.501ZM476.072 95.8096H482.453C484.263 95.8096 487.691 95.8096 489.596 93.9048C490.644 92.8572 491.31 91.1429 491.31 89.1429C491.31 86.7619 490.453 85.3334 489.501 84.4762C487.691 82.7619 484.834 82.5715 482.453 82.5715H476.072V95.8096Z" fill="#3D40C0"/>
<path d="M401 108.571V45.0476H442.333V59.0476H417.571V70H424.048C432.143 70 439.381 71.2381 444.143 76.1905C447.095 79.3334 449 84 449 89.3334C449 94.4762 447.19 99.4286 443.762 102.857C438.714 107.81 431.095 108.571 423.476 108.571H401ZM417.571 95.7143H423.286C425.095 95.7143 428.619 95.6191 430.619 93.5238C431.571 92.4762 432.238 90.9524 432.238 89.0476C432.238 86.8572 431.381 85.2381 430.333 84.2857C428.429 82.6667 425.381 82.5715 423.286 82.5715H417.571V95.7143Z" fill="#3D40C0"/>
</svg>
